<svg width="24" height="24" viewBox="0 0 24 24" fill="none" xmlns="http://www.w3.org/2000/svg">
<path fill-rule="evenodd" clip-rule="evenodd" d="M2.97126 0.0318045C1.64041 0.258304 0.533965 1.25647 0.110043 2.61307L0 2.96522V12.0271V21.0889L0.129018 21.4646C0.536924 22.652 1.34837 23.4632 2.5362 23.871L2.91194 24H11.9765H21.0411L21.3933 23.89C22.0456 23.6863 22.4513 23.4394 22.9453 22.9456C23.4392 22.4518 23.6862 22.0462 23.89 21.3941L24 21.042V12.0036V2.96522L23.89 2.61509C23.5011 1.3769 22.6731 0.540865 21.4168 0.117869L21.0881 0.00720129L12.1409 0.000580963C7.21996 -0.00308134 3.09365 0.0109575 2.97126 0.0318045ZM18.3255 2.9215C19.0291 3.06682 19.6179 3.38648 20.1215 3.89681C20.5803 4.36154 20.8734 4.86459 21.0534 5.49601C21.1291 5.76153 21.135 6.2358 21.135 12.0036C21.135 17.7714 21.1291 18.2457 21.0534 18.5112C20.6755 19.8368 19.6417 20.8139 18.3306 21.0846C18.0108 21.1507 17.2754 21.1594 12 21.1594C5.48985 21.1594 5.67997 21.1666 5.02798 20.8923C4.1899 20.5397 3.46112 19.8116 3.10953 18.976C2.83407 18.3211 2.84149 18.5145 2.84149 12.0036C2.84149 5.50817 2.8343 5.6988 3.10445 5.03414C3.52349 4.0032 4.5344 3.16195 5.63845 2.9254C6.14405 2.81708 17.8025 2.81351 18.3255 2.9215ZM5.87084 4.32313C5.47538 4.42206 5.17935 4.591 4.88116 4.88797C4.57404 5.19387 4.38838 5.53071 4.30286 5.93727C4.22823 6.29195 4.22907 17.7211 4.30375 18.0699C4.47645 18.8766 5.12496 19.5249 5.93185 19.6975C6.28105 19.7722 17.7135 19.773 18.0681 19.6984C18.8652 19.5306 19.5308 18.8653 19.6974 18.0699C19.7718 17.7147 19.7707 6.28514 19.6963 5.93727C19.5231 5.12856 18.8726 4.47789 18.0681 4.30877C17.6916 4.22956 6.19064 4.24313 5.87084 4.32313ZM17.5626 5.82581C18.0538 6.06611 18.3151 6.4993 18.3151 7.07357C18.3151 7.47356 18.2175 7.7411 17.9683 8.02488C17.5862 8.45994 16.8544 8.59376 16.3124 8.32768C15.5597 7.95816 15.3024 7.02352 15.7564 6.30792C16.1311 5.71725 16.9136 5.50841 17.5626 5.82581ZM13.1287 7.20706C14.0577 7.44915 14.8406 7.88872 15.4784 8.52624C16.1125 9.16024 16.5414 9.92087 16.8026 10.8753C16.9424 11.3863 16.9424 12.6209 16.8026 13.1319C16.5414 14.0863 16.1125 14.847 15.4784 15.481C14.8442 16.1149 14.0834 16.5436 13.1287 16.8047C12.6102 16.9465 11.3831 16.9446 10.8573 16.8011C8.98502 16.2903 7.71058 15.0124 7.19779 13.1319C7.05036 12.5912 7.05356 11.4322 7.20409 10.8564C7.71894 8.88684 9.30768 7.42849 11.272 7.12236C11.7106 7.05404 12.7176 7.09996 13.1287 7.20706ZM11.2724 8.56014C10.1658 8.79716 9.16063 9.6347 8.73957 10.6707C7.91375 12.7024 9.14997 15.0052 11.3054 15.4503C12.4611 15.689 13.647 15.3256 14.4855 14.4761C15.1324 13.8208 15.4454 13.1196 15.5062 12.1905C15.6365 10.1965 13.982 8.46492 11.9667 8.486C11.7654 8.48807 11.453 8.52145 11.2724 8.56014Z" fill="#000907"/>
</svg>
