<?xml version="1.0" standalone="no"?>
<!DOCTYPE svg PUBLIC "-//W3C//DTD SVG 20010904//EN"
 "http://www.w3.org/TR/2001/REC-SVG-20010904/DTD/svg10.dtd">
<svg version="1.0" xmlns="http://www.w3.org/2000/svg"
 width="700.000000pt" height="700.000000pt" viewBox="0 0 700.000000 700.000000"
 preserveAspectRatio="xMidYMid meet">
<metadata>
Created by potrace 1.14, written by Peter Selinger 2001-2017
</metadata>
<g transform="translate(0.000000,700.000000) scale(0.100000,-0.100000)"
fill="#000000" stroke="none">
<path d="M0 6067 l0 -934 98 -70 c53 -38 133 -96 177 -127 44 -31 87 -62 95
-69 8 -7 78 -57 155 -111 77 -55 163 -116 190 -137 28 -20 84 -61 126 -91 42
-29 121 -84 174 -123 53 -38 126 -90 160 -115 35 -25 148 -106 251 -180 104
-74 198 -142 210 -150 48 -33 658 -472 682 -490 14 -12 21 -24 16 -29 -5 -4
-61 -27 -124 -50 -63 -24 -128 -49 -145 -56 -16 -7 -59 -25 -95 -41 -36 -15
-124 -58 -197 -95 -513 -262 -962 -640 -1315 -1104 -69 -91 -235 -339 -251
-375 -4 -8 -20 -37 -37 -65 -17 -27 -62 -113 -100 -191 l-70 -140 0 -662 0
-662 764 0 765 0 6 47 c28 218 120 505 228 712 272 525 742 895 1307 1029 437
104 867 74 1283 -90 88 -34 137 -58 285 -139 81 -44 257 -183 358 -284 233
-230 378 -456 502 -785 45 -118 104 -355 114 -455 l3 -30 693 -3 692 -2 0 799
0 799 -66 109 c-372 608 -830 1086 -1539 1604 -81 59 -592 399 -600 399 -9 0
-421 267 -725 470 -820 548 -1635 1106 -1632 1116 1 5 31 8 65 6 62 -2 543
-14 1297 -32 217 -5 1026 -9 1798 -10 l1402 0 0 870 0 870 -3500 0 -3500 0 0
-933z"/>
</g>
</svg>
