<svg width="14" height="14" viewBox="0 0 14 14" fill="none" xmlns="http://www.w3.org/2000/svg">
<path d="M12.9258 1.06668L13.4257 1.0631C13.4238 0.787394 13.199 0.56532 12.9233 0.566686L12.9258 1.06668ZM2.79052 1.61691L12.8781 1.56692L12.8732 0.566935L2.78556 0.616918L2.79052 1.61691ZM12.8781 1.56692L12.9282 1.56667L12.9233 0.566686L12.8732 0.566935L12.8781 1.56692ZM13.5 11.4234L13.4257 1.0631L12.4258 1.07026L12.5 11.4306L13.5 11.4234ZM1.35441 13.3527L13.23 1.41963L12.5212 0.714229L0.645595 12.6473L1.35441 13.3527ZM13.23 1.41963L13.2966 1.3527L12.5878 0.6473L12.5212 0.714229L13.23 1.41963Z" fill="#000907"/>
</svg>
