<svg width="24" height="24" viewBox="0 0 24 24" fill="none" xmlns="http://www.w3.org/2000/svg">
<path fill-rule="evenodd" clip-rule="evenodd" d="M2.6774 0.0357333C1.36795 0.255894 0.243557 1.40703 0.0393876 2.73654C0.00554703 2.95689 -0.00599912 5.96166 0.0028717 12.2149L0.0159198 21.3707L0.148043 21.7463C0.516863 22.7946 1.2209 23.4989 2.26883 23.8678L2.64431 24H12.008H21.3716L21.7471 23.8674C22.8306 23.4849 23.5776 22.705 23.9139 21.6054C23.9962 21.3361 24 20.9108 24 11.9801V2.63658L23.8679 2.26096C23.4991 1.21265 22.795 0.508358 21.7471 0.139405L21.3716 0.00723311L12.1488 0.000565841C6.94281 -0.00319037 2.81769 0.0121162 2.6774 0.0357333ZM12.5123 7.73107C12.9667 7.79009 13.121 7.87639 13.2356 8.13557C13.3229 8.33305 13.3277 8.43696 13.3155 9.85774C13.3038 11.2277 13.3105 11.3883 13.3872 11.5675C13.545 11.9365 13.7201 11.8984 14.1466 11.4022C14.7559 10.6933 15.3457 9.70684 15.7379 8.74041C15.841 8.48654 15.9656 8.26558 16.0501 8.18689L16.1908 8.05598L17.741 8.06951L19.2912 8.08308L19.4091 8.22027C19.5574 8.39282 19.5355 8.58279 19.3114 9.068C19.1207 9.481 18.8522 9.88413 17.9976 11.0411C17.2512 12.0516 17.0791 12.3357 17.0778 12.5593C17.0771 12.6994 17.1654 12.8066 17.9101 13.57C19.5184 15.2187 19.8278 15.8295 19.2397 16.1953C19.0761 16.2971 19.0375 16.2997 17.7576 16.2963C16.0074 16.2918 16.1358 16.3397 15.1292 15.3157C14.7161 14.8957 14.2961 14.4962 14.1956 14.4281C13.9693 14.2746 13.7931 14.2701 13.6577 14.4142C13.5304 14.5498 13.4849 14.7006 13.368 15.3748C13.2615 15.9889 13.2318 16.0584 13.0274 16.1702C12.9003 16.2397 12.7569 16.2524 12.1253 16.2503C10.8409 16.246 9.95622 15.9735 8.98423 15.2827C8.02036 14.5977 7.08188 13.4356 6.06995 11.6738C5.42914 10.5582 4.49827 8.61298 4.49827 8.38958C4.49827 8.31713 4.53882 8.20792 4.58843 8.14698L4.67859 8.03612L5.96989 8.04504C7.62535 8.05645 7.56293 8.02795 7.95395 8.9517C8.36398 9.92038 9.24773 11.3411 9.64288 11.667C9.87798 11.8608 9.97818 11.8786 10.1075 11.7492C10.2909 11.5658 10.3423 11.1914 10.3369 10.0773C10.3325 9.17186 10.3221 9.04434 10.2372 8.85225C10.1289 8.60735 9.95866 8.46842 9.67249 8.39132C9.51244 8.34822 9.47344 8.31676 9.47344 8.23093C9.47344 8.03016 9.80386 7.7939 10.1715 7.73173C10.4823 7.67919 12.1096 7.67872 12.5123 7.73107Z" fill="#000907"/>
</svg>
